# xmcd CD database file
#
# Track frame offsets:
#	150
#	20446
#	39617
#	59913
#
# Disc length: 1051 seconds
#
# Revision: 3
# Processed by: cddbd v1.5.2PL0 Copyright (c) Steve Scherf et al.
# Submitted via: CDex 1.70beta3
#
DISCID=34041904
DTITLE=泉こなた(平野綾)、柊かがみ(加藤英美里)、柊つかさ(福原香織)、高良みゆき(遠藤綾) - ハマってサボっておーまいがっ!
DYEAR=2008
DGENRE=Anime
TTITLE0=ハマってサボっておーまいがっ!
TTITLE1=なんてったって☆伝説
TTITLE2=ハマってサボっておーまいがっ! (off vocal)
TTITLE3=なんてったって☆伝説 (off vocal)
EXTD=YEAR: 2008
EXTT0=
EXTT1=
EXTT2=
EXTT3=
PLAYORDER=
